<svg width="2040" height="2008" viewBox="0 0 2040 2008" fill="none" xmlns="http://www.w3.org/2000/svg" aria-hidden="true">
  <g opacity="0.5">
    <path d="M332.428 1187.9C332.428 1272.24 343.105 1362.01 362.964 1447.66C277.127 1320.57 227 1167.36 227 1002.44C227 980.992 227.853 959.753 229.521 938.735C264.331 863.728 301.164 823.579 332.668 800.145C364.852 776.194 396.883 765.076 428.09 766.974C414.959 794.979 403.094 823.464 392.542 852.38C352.651 961.651 332.428 1074.54 332.428 1187.9Z" fill="#E05C3A"/>
    <path d="M240.073 857.958C255.274 775.025 283.308 696.586 322.058 624.78C381.567 610.94 441.939 606.56 518.259 610.451C489.506 652.009 463.868 695.1 441.479 739.485C400.075 733.533 356.629 746.462 315.502 777.075C288.158 797.423 262.079 825.486 240.073 857.958Z" fill="#E05C3A"/>
    <path d="M341.131 591.388C390.922 508.915 455.242 436.198 530.547 376.794C532.282 394.161 538.79 409.611 544.636 419.051C558.553 441.488 579.379 459.296 606.532 471.966C612.216 474.621 618.187 477.036 624.378 479.193C600.475 504.649 577.693 531.236 556.166 558.868C549.975 566.804 543.917 574.816 537.975 582.877C536.748 582.772 535.521 582.657 534.314 582.561L534.055 582.542C459.152 577.865 398.962 580.491 341.131 591.388Z" fill="#E05C3A"/>
    <path d="M569.075 403.889C562.193 392.8 555.523 371.983 560.88 354.002C690.288 261.523 848.545 206.815 1019.54 206C881.908 262.097 754.014 348.002 646.727 456.037C611.63 446.501 584.266 428.387 569.075 403.889Z" fill="#E05C3A"/>
    <path d="M1157.46 1754.59C1182.95 1761.48 1209.36 1766.65 1236.49 1770.09C1168.68 1788.87 1097.25 1798.9 1023.46 1798.9C776.137 1798.9 555.141 1686.17 409.056 1509.29C378.146 1406.42 361.182 1292.84 361.182 1187.9C361.182 1077.92 380.82 968.343 419.551 862.234C430.698 831.698 443.358 801.651 457.467 772.151C491.616 781.304 529.934 802.974 576.859 868.771C608.324 912.878 640.672 973.355 672.99 1048.53C710.359 1135.41 748.936 1244.77 787.657 1373.59C828.975 1511.01 901.5 1615.66 1003.23 1684.62C1049.32 1715.86 1101.21 1739.41 1157.46 1754.59Z" fill="#E05C3A"/>
    <path d="M681.222 462.354C799.512 347.361 942.012 259.501 1094.15 209.078C1319.84 228.927 1518.5 342.895 1650.66 511.493C1636.63 499.005 1622.08 487.139 1607.03 475.916C1530.53 418.851 1458.74 391.593 1411.99 378.769C1276.74 341.687 1138.27 378.568 1004.37 414.231C911.773 438.882 816.408 464.29 723.689 464.28C711.498 464.28 699.326 463.849 687.23 462.9C685.209 462.747 683.215 462.555 681.222 462.354Z" fill="#E05C3A"/>
    <path d="M1723.71 1382.23C1633.63 1547.97 1486.44 1678.15 1308.55 1746.36C1258.33 1745.57 1210.12 1739.03 1164.95 1726.84C1111.79 1712.48 1062.8 1690.27 1019.37 1660.82C923.245 1595.67 854.554 1496.24 815.201 1365.31C776.154 1235.45 737.194 1125.05 699.403 1037.17C666.279 960.117 632.926 897.848 600.272 852.063C550.769 782.672 507.553 757.13 470.452 745.955C493.953 700.18 521.029 655.824 551.507 613.173C683.79 628.863 913.355 702.768 1150.14 838.798C1278.94 912.789 1392.76 995.339 1488.42 1084.15C1590.74 1179.15 1669.81 1279.33 1723.71 1382.23Z" fill="#E05C3A"/>
    <path d="M1819.92 1002.44C1819.92 1127.55 1791.08 1245.91 1739.68 1351.25C1684.66 1251.65 1606.88 1154.89 1507.98 1063.07C1410.73 972.788 1295.15 888.944 1164.47 813.861C1051.32 748.869 929.658 692.437 812.642 650.678C722.846 618.638 638.705 596.45 571.011 586.731C573.599 583.319 576.206 579.926 578.841 576.543C603.013 545.518 628.814 515.845 656.024 487.658C665.426 489.479 675.126 490.802 685.007 491.578C697.936 492.575 710.875 493.044 723.843 493.044C820.137 493.044 917.38 467.147 1011.77 442.017C1077.37 424.545 1145.21 406.478 1211.09 397.689C1284.05 387.961 1347.28 390.846 1404.38 406.507C1448.75 418.67 1516.94 444.586 1589.84 498.958C1651.01 544.58 1703.57 601.328 1746.5 667.988C1793.62 769.676 1819.92 882.992 1819.92 1002.44Z" fill="#E05C3A"/>
  </g>
  <g filter="url(#filter0_d_4_18)">
    <ellipse cx="1020" cy="1000" rx="1016" ry="1000" fill="#D9D9D9" fill-opacity="0.08" shape-rendering="crispEdges"/>
    <path d="M1020 50C1554.26 50 1986 476.075 1986 1000C1986 1523.93 1554.26 1950 1020 1950C485.742 1950 54 1523.93 54 1000C54 476.075 485.742 50 1020 50Z" stroke="#C8963C" stroke-width="100" shape-rendering="crispEdges"/>
  </g>
  <defs>
    <filter id="filter0_d_4_18" x="0" y="0" width="2040" height="2008" filterUnits="userSpaceOnUse" color-interpolation-filters="sRGB">
      <feFlood flood-opacity="0" result="BackgroundImageFix"/>
      <feColorMatrix in="SourceAlpha" type="matrix" values="0 0 0 0 0 0 0 0 0 0 0 0 0 0 0 0 0 0 127 0" result="hardAlpha"/>
      <feOffset dy="4"/>
      <feGaussianBlur stdDeviation="2"/>
      <feComposite in2="hardAlpha" operator="out"/>
      <feColorMatrix type="matrix" values="0 0 0 0 0 0 0 0 0 0 0 0 0 0 0 0 0 0 0.25 0"/>
      <feBlend mode="normal" in2="BackgroundImageFix" result="effect1_dropShadow_4_18"/>
      <feBlend mode="normal" in="SourceGraphic" in2="effect1_dropShadow_4_18" result="shape"/>
    </filter>
  </defs>
</svg>
